<?xml version="1.0" standalone="no"?>
<!DOCTYPE svg PUBLIC "-//W3C//DTD SVG 20010904//EN"
 "http://www.w3.org/TR/2001/REC-SVG-20010904/DTD/svg10.dtd">
<svg version="1.0" xmlns="http://www.w3.org/2000/svg"
 width="1667.000000pt" height="1668.000000pt" viewBox="0 0 1667.000000 1668.000000"
 preserveAspectRatio="xMidYMid meet">

<g transform="translate(0.000000,1668.000000) scale(0.100000,-0.100000)"
fill="#000000" stroke="none">
<path d="M9765 10460 l-110 -38 138 -1 138 -1 -23 40 c-13 22 -25 40 -28 39
-3 0 -54 -18 -115 -39z"/>
<path d="M9085 10230 c3 -5 15 -15 26 -21 18 -9 19 -9 7 10 -7 12 -19 21 -26
21 -7 0 -10 -4 -7 -10z"/>
<path d="M8600 10075 l-185 -63 305 -1 305 -1 -110 65 c-60 35 -114 64 -120
64 -5 0 -93 -29 -195 -64z"/>
<path d="M7220 9618 c-382 -126 -698 -233 -702 -236 -3 -4 8 -32 26 -62 l32
-55 1502 -5 1502 -5 -98 -170 c-54 -93 -202 -350 -329 -570 -127 -220 -362
-625 -520 -900 -159 -275 -293 -499 -298 -499 -5 1 -214 355 -465 788 l-455
786 -337 0 c-186 0 -338 -2 -338 -5 0 -4 60 -108 464 -810 130 -225 379 -658
554 -962 l317 -552 260 0 260 0 565 981 c311 540 702 1218 868 1507 167 289
307 533 312 541 5 10 -31 83 -120 235 l-128 220 -1088 2 -1089 2 -695 -231z"/>
<path d="M7755 9027 c61 -35 213 -123 340 -197 126 -73 234 -133 240 -133 6 0
154 83 330 185 176 101 329 190 340 196 15 9 -148 11 -670 12 l-690 0 110 -63z"/>
<path d="M7550 8894 c0 -5 153 -274 340 -599 l340 -589 0 401 0 401 -317 183
c-175 100 -328 189 -340 197 -13 8 -23 10 -23 6z"/>
<path d="M8780 8705 l-335 -194 -3 -402 c-1 -221 -1 -401 1 -398 3 2 92 157
199 344 108 187 261 454 341 593 81 138 143 252 139 251 -4 0 -158 -87 -342
-194z"/>
<path d="M2000 5865 l0 -135 215 0 215 0 0 135 0 135 -215 0 -215 0 0 -135z"/>
<path d="M14240 5865 l0 -135 215 0 215 0 0 135 0 135 -215 0 -215 0 0 -135z"/>
<path d="M4527 5949 c-144 -19 -250 -71 -336 -165 -75 -82 -95 -143 -96 -284
0 -109 2 -118 32 -183 41 -87 124 -169 220 -220 91 -48 104 -52 426 -148 279
-82 339 -106 357 -138 13 -25 13 -87 0 -111 -23 -44 -34 -45 -525 -50 l-470
-5 -3 -188 -2 -188 477 3 c453 4 482 5 556 26 291 80 443 286 406 546 -17 123
-63 200 -163 271 -117 82 -191 112 -550 216 -132 39 -256 79 -276 89 -67 34
-73 115 -10 147 19 10 135 13 488 13 l462 0 -2 188 -3 187 -460 1 c-253 1
-490 -2 -528 -7z"/>
<path d="M10831 5630 c-85 -12 -194 -45 -253 -77 -105 -57 -200 -190 -235
-330 -25 -97 -24 -428 0 -528 52 -212 182 -335 417 -396 79 -21 113 -22 508
-26 l422 -5 0 166 0 165 -402 3 c-396 3 -404 3 -445 26 -51 26 -70 61 -79 136
l-7 56 483 0 482 0 -5 188 c-3 131 -9 205 -21 247 -54 196 -163 301 -371 356
-63 17 -117 22 -255 24 -96 2 -204 0 -239 -5z m398 -318 c54 -27 74 -63 79
-137 l4 -65 -277 0 -278 0 6 60 c6 73 31 119 77 142 29 15 63 18 195 18 133 0
166 -3 194 -18z"/>
<path d="M2000 4945 l0 -675 215 0 215 0 0 675 0 675 -215 0 -215 0 0 -675z"/>
<path d="M3165 5609 c-265 -39 -431 -183 -480 -417 -20 -94 -20 -415 0 -501
37 -154 134 -284 257 -341 142 -67 187 -73 576 -78 l352 -4 0 165 0 165 -312
4 c-337 4 -356 7 -405 60 -38 41 -45 90 -41 293 3 213 13 248 78 292 56 39 95
43 393 43 l287 0 0 165 0 165 -322 -1 c-178 -1 -350 -5 -383 -10z"/>
<path d="M5790 4780 l0 -840 215 0 215 0 0 165 0 165 293 0 c321 0 382 8 484
57 129 62 235 217 269 391 21 110 15 416 -10 507 -52 183 -160 306 -322 367
-58 22 -69 23 -601 26 l-543 3 0 -841z m946 481 c84 -38 104 -97 104 -311 0
-216 -23 -279 -115 -321 -35 -16 -69 -19 -272 -19 l-233 0 0 335 0 335 238 0
c209 0 242 -3 278 -19z"/>
<path d="M7460 5456 l0 -166 346 -2 347 -3 -189 -129 c-366 -251 -458 -326
-502 -411 -24 -44 -27 -61 -27 -150 0 -84 4 -107 22 -140 49 -90 149 -154 273
-174 39 -7 262 -11 553 -11 l488 0 -4 438 c-4 485 -5 492 -74 624 -67 128
-181 211 -358 259 -75 21 -107 23 -477 27 l-398 4 0 -166z m900 -636 l0 -220
-219 0 c-186 0 -222 2 -235 16 -29 29 -18 52 52 109 75 61 396 313 400 314 1
1 2 -98 2 -219z"/>
<path d="M9475 5609 c-264 -39 -431 -184 -480 -417 -10 -44 -15 -129 -15 -247
0 -204 12 -280 60 -380 64 -134 175 -217 355 -266 73 -20 109 -23 433 -27
l352 -4 0 165 0 165 -312 4 c-312 3 -313 3 -358 28 -32 18 -52 38 -68 70 -22
43 -23 53 -20 245 3 224 12 258 78 302 56 39 95 43 393 43 l287 0 0 165 0 165
-322 -1 c-178 -1 -350 -5 -383 -10z"/>
<path d="M12650 5455 l0 -165 346 -2 345 -3 -138 -94 c-422 -288 -528 -376
-561 -464 -30 -80 -35 -143 -17 -211 28 -105 96 -175 215 -218 l65 -23 525 0
525 0 0 415 c0 461 -5 506 -67 632 -37 74 -133 175 -198 208 -149 76 -257 90
-692 90 l-348 0 0 -165z m900 -635 l0 -220 -216 0 c-129 0 -223 4 -235 10 -28
15 -24 56 9 84 27 25 435 345 440 346 1 0 2 -99 2 -220z"/>
<path d="M14240 4945 l0 -675 215 0 215 0 0 675 0 675 -215 0 -215 0 0 -675z"/>
<path d="M11947 4744 c-4 -4 -7 -112 -7 -241 l0 -233 238 2 237 3 0 235 0 235
-231 3 c-127 1 -233 -1 -237 -4z"/>
</g>
</svg>
