<svg xmlns="http://www.w3.org/2000/svg"  viewBox="0 0 64 64" width="30px" height="30px"><g data-name="Color copy 2"><path fill="#79bd9a" d="M25,41h1a4,4,0,0,1,4,4v0a0,0,0,0,1,0,0H21a0,0,0,0,1,0,0v0A4,4,0,0,1,25,41Z"/><path fill="#cff09e" d="M9.92,15.306h6a0,0,0,0,1,0,0v5a0,0,0,0,1,0,0h-1a5,5,0,0,1-5-5v0A0,0,0,0,1,9.92,15.306Z" transform="rotate(-30 12.918 17.806)"/><path fill="#a8dba8" d="M13.938,3.939A7,7,0,0,0,11.376,13.5l1,1.732a6.966,6.966,0,0,0,3.979,3.175,17.93,17.93,0,0,0,1.557,14.414h0A17.991,17.991,0,0,0,36.781,41.5L43.8,53.668a6,6,0,0,0,8.2,2.2L23.5,6.5A7,7,0,0,0,13.938,3.939Z"/><path fill="#cff09e" d="M19.469,10.618a7.949,7.949,0,0,0-.08,3.245,3.441,3.441,0,0,1-5.72,3,6.957,6.957,0,0,1-1.293-1.627l-1-1.732,4.062-6.964.086.149A6.829,6.829,0,0,0,19.67,9.867h0Z"/><path fill="#fff" d="M13.9,15.507l-.459.131A5.132,5.132,0,0,0,9.73,20.281h0L9.06,19.4A6.184,6.184,0,0,1,10.9,10.311h0a5.085,5.085,0,0,1,3.012,4.79Z"/><path fill="#cff09e" d="M13.91,14.93v.17l-.01.41-.46.13a5.119,5.119,0,0,0-3.71,4.64l-.67-.89a6.152,6.152,0,0,1-.53-6.61A5.2,5.2,0,0,0,13,15,5.5,5.5,0,0,0,13.91,14.93Z"/><path fill="#fff" d="M25.881,17a8,8,0,0,0-2.929,10.928l3,5.2a6,6,0,0,0,8.295,2.138,5.923,5.923,0,0,0,8.1,2.255l.5.866a4,4,0,0,0,5.464,1.464l-11.5-19.919A8,8,0,0,0,25.881,17Z"/><path fill="#cff09e" d="M33.852,35.466a5.986,5.986,0,0,1-7.9-2.344l-3-5.2a7.992,7.992,0,0,1,6.9-11.995,7.67,7.67,0,0,0-.871.433,8,8,0,0,0-2.928,10.928l3,5.2A5.969,5.969,0,0,0,33.852,35.466Z"/><path fill="#cff09e" d="M46.9,40.323a3.874,3.874,0,0,1-1.626-.077,4.021,4.021,0,0,1-2.428-1.866l-7.5-12.99h0a2,2,0,0,1,2.732.732l7.36,12.748A3.876,3.876,0,0,0,46.9,40.323Z"/><path fill="#cff09e" d="M41.094,38.051a6,6,0,0,1-6.947-2.733l-4-6.928h0a3,3,0,0,1,4.1,1.1l3.36,5.82A5.912,5.912,0,0,0,41.094,38.051Z"/><path fill="#a8dba8" d="M36.809,19.928l4.985,8.634a17.015,17.015,0,0,1-19.81-3.331A8.046,8.046,0,0,1,25.881,17,8,8,0,0,1,36.809,19.928Z"/><path fill="#79bd9a" d="M36.809,19.928l.985,1.706a16.949,16.949,0,0,1-15.524-.148A7.888,7.888,0,0,1,25.881,17,8,8,0,0,1,36.809,19.928Z"/><path fill="#79bd9a" d="M30,41h1a4,4,0,0,1,4,4v0a0,0,0,0,1,0,0H26a0,0,0,0,1,0,0v0A4,4,0,0,1,30,41Z"/><rect width="58" height="4" x="3" y="45" fill="#cff09e"/><polygon fill="#cff09e" points="57 45 52 45 58 35 61 36 57 45"/></g><g data-name="Stroke Close copy"><circle cx="16.397" cy="11.867" r="1" fill="#3b8686" transform="rotate(-75 16.397 11.867)"/><path fill="#3b8686" d="M61,48H3a1,1,0,0,0,0,2H40.722l2.407,4.168a6.952,6.952,0,0,0,4.25,3.262,7.064,7.064,0,0,0,1.824.241,6.954,6.954,0,0,0,3.488-.94,1,1,0,0,0,.366-1.366L49.96,50H61a1,1,0,0,0,0-2ZM50.775,55.413a5,5,0,0,1-5.914-2.245L43.032,50H47.65Z"/><path fill="#3b8686" d="M61,44H58.539l3.375-7.594a1,1,0,0,0-.6-1.355l-3-1a1,1,0,0,0-1.173.434L51.434,44H46.5l-1.688-2.924A4.935,4.935,0,0,0,49,40.713a1,1,0,0,0,.366-1.366l-11.5-19.919a9.006,9.006,0,0,0-8.147-4.487L24.557,6a7.98,7.98,0,0,0-14.9,4.1,7.163,7.163,0,0,0-1.2,9.9l.67.886a1,1,0,0,0,1.8-.546c.007-.118.031-.231.047-.346a5.818,5.818,0,0,0,4.061.464,18.852,18.852,0,0,0,8.923,19.659A5.013,5.013,0,0,0,20.1,44H3a1,1,0,0,0,0,2H52a1,1,0,0,0,.857-.485L58.445,36.2l1.194.4-3.553,7.993A1,1,0,0,0,57,46h4a1,1,0,0,0,0-2ZM34.206,33.088a1,1,0,1,0-1.732,1l.445.772a4.978,4.978,0,0,1-5.909-2.235l-2.375-4.114a17.822,17.822,0,0,0,16.942,1.345l5.471,9.476A3,3,0,0,1,43.9,37.883l-.5-.866-2-3.464a1,1,0,1,0-1.732,1l1.437,2.489a5.12,5.12,0,0,1-2.985.023,4.618,4.618,0,0,1-2.8-2.27ZM23.12,24.75a6.963,6.963,0,0,1,.029-1.829,18,18,0,0,0,7.226,1.517,17.923,17.923,0,0,0,7.2-1.51l2.991,5.181A15.909,15.909,0,0,1,23.12,24.75Zm13.014-4.322.423.734a15.956,15.956,0,0,1-12.823-.2,6.995,6.995,0,0,1,12.4-.538ZM9.1,14.636a5.188,5.188,0,0,1,2.043-3.171A4.066,4.066,0,0,1,13.1,14.756a6.14,6.14,0,0,0-3.585,3.165A5.184,5.184,0,0,1,9.1,14.636Zm9.487-.626a2.476,2.476,0,0,1-1.361,2.5,2.242,2.242,0,0,1-2.221-.032c-.091-.071-.178-.149-.266-.226a.988.988,0,0,0,.349-.715l.012-.406A6.056,6.056,0,0,0,13.948,11.4L15.7,8.393a7.753,7.753,0,0,0,2.95,2.121A8.994,8.994,0,0,0,18.591,14.01Zm-6.874,4.132a4.14,4.14,0,0,1,1.027-1c.145.162.289.316.435.451a4.613,4.613,0,0,0,.382.3c.073.061.149.116.223.174.03.019.057.043.087.062.192.145.382.291.585.417A4.007,4.007,0,0,1,11.717,18.142Zm7.252,14.18A17.033,17.033,0,0,1,17.5,18.708a1.019,1.019,0,0,0,.017-.157,4.607,4.607,0,0,0,.645-.272,4.468,4.468,0,0,0,2.408-4.564,6.922,6.922,0,0,1,.055-2.839l.2-.75A1,1,0,0,0,20.12,8.9a5.791,5.791,0,0,1-3.54-2.716l-.086-.149a1,1,0,0,0-.864-.5h0a1,1,0,0,0-.864.5L12.476,9.958a6.04,6.04,0,0,0-.808-.47A5.986,5.986,0,0,1,22.825,7l4.781,8.282a8.964,8.964,0,0,0-5.329,13.145l3,5.2a7.005,7.005,0,0,0,8.8,2.942,6.642,6.642,0,0,0,3.469,2.414,7.128,7.128,0,0,0,3.773.058L44.186,44H39.568l-1.73-3a1,1,0,0,0-1.049-.483,16.953,16.953,0,0,1-3.13.261A4.952,4.952,0,0,0,31,40H30a4.967,4.967,0,0,0-1.056.117A16.839,16.839,0,0,1,18.969,32.322ZM37.258,44H35.9a4.915,4.915,0,0,0-.482-1.293c.347-.03.7-.056,1.034-.1ZM25,42h1c.008,0,.015,0,.023,0a4.956,4.956,0,0,0-.922,2H22.184A3,3,0,0,1,25,42Zm2.171,2A3.006,3.006,0,0,1,30,42h1a3.006,3.006,0,0,1,2.829,2Z"/></g></svg>